<svg xmlns="http://www.w3.org/2000/svg" width="32" height="31">
    <path fill="#AEE0D2" fill-rule="evenodd" d="M32 16.5c0 .828-.672 1.5-1.5 1.5-.395 0-.752-.156-1.02-.406l-.003.004L16.038 4.159 16 4.122 2.554 17.569l-.001-.001C2.282 17.835 1.91 18 1.5 18 .672 18 0 17.328 0 16.5c0-.425.177-.808.461-1.081L14.919.96C15.192.677 15.575.5 16 .5h.001c.026 0 .052 0 .079.002l.012.001c.023.001.045.003.068.006h.004c.367.04.694.212.933.468l.001-.001L23 6.878V5.5c0-.829.671-1.5 1.5-1.5.828 0 1.5.671 1.5 1.5v4.378l5.598 5.598-.004.004c.25.268.406.625.406 1.02zM29 19v10.5c0 .828-.672 1.5-1.5 1.5h-3V19h-6v12h-14c-.828 0-1.5-.672-1.5-1.5V19L16 6l13 13zm-15.5 0h-6v6h6v-6z"/>
</svg>
