<svg xmlns="http://www.w3.org/2000/svg" width="30" height="30">
    <path fill="#FFF" fill-rule="evenodd" d="M30 23.999c0 .653-.419 1.202-1 1.409v1.683c.581.207 1 .757 1 1.409 0 .828-.672 1.499-1.5 1.499-.652 0-1.201-.418-1.408-.999h-1.684c-.207.581-.756.999-1.408.999-.652 0-1.202-.418-1.408-.999h-1.684c-.207.581-.756.999-1.408.999-.652 0-1.202-.418-1.408-.999h-1.684c-.206.581-.756.999-1.408.999-.652 0-1.202-.418-1.408-.999h-1.684c-.207.581-.756.999-1.408.999-.652 0-1.202-.418-1.408-.999H7.408c-.206.581-.756.999-1.408.999-.652 0-1.202-.418-1.408-.999H2.908c-.207.581-.756.999-1.408.999-.828 0-1.5-.671-1.5-1.499 0-.652.419-1.202 1-1.409v-1.683c-.581-.207-1-.756-1-1.409 0-.652.419-1.201 1-1.407v-1.684c-.581-.207-1-.757-1-1.408 0-.652.419-1.202 1-1.409v-1.683c-.581-.207-1-.756-1-1.408 0-.653.419-1.202 1-1.409v-1.684c-.581-.206-1-.755-1-1.407s.419-1.202 1-1.408V7.408c-.581-.207-1-.756-1-1.409 0-.652.419-1.201 1-1.407V2.908C.419 2.701 0 2.151 0 1.5 0 .671.672 0 1.5 0c.652 0 1.201.418 1.408.999h1.684C4.798.418 5.348 0 6 0c.652 0 1.202.418 1.408.999h1.684C9.298.418 9.848 0 10.5 0c.652 0 1.201.418 1.408.999h1.684C13.798.418 14.348 0 15 0c.652 0 1.202.418 1.408.999h1.684C18.298.418 18.848 0 19.5 0c.652 0 1.201.418 1.408.999h1.684C22.798.418 23.348 0 24 0c.652 0 1.201.418 1.408.999h1.684C27.299.418 27.848 0 28.5 0c.828 0 1.5.671 1.5 1.5 0 .651-.419 1.201-1 1.408v1.684c.581.206 1 .755 1 1.407 0 .653-.419 1.202-1 1.409v1.684c.581.206 1 .756 1 1.408 0 .652-.419 1.201-1 1.407v1.684c.581.207 1 .756 1 1.409 0 .652-.419 1.201-1 1.408v1.683c.581.207 1 .757 1 1.409 0 .651-.419 1.201-1 1.408v1.684c.581.206 1 .755 1 1.407zm-4-20H4V26h22V3.999zM13 20l7-8.5 4.5 6.999V24.5h-19l6-6.001L13 20zm-3-7.001c-1.657 0-3-1.342-3-2.999s1.343-3 3-3 3 1.343 3 3-1.343 2.999-3 2.999z"/>
</svg>
